G75*
%MOIN*%
%OFA0B0*%
%FSLAX25Y25*%
%IPPOS*%
%LPD*%
%AMOC8*
5,1,8,0,0,1.08239X$1,22.5*
%
%ADD10C,0.00800*%
%ADD11R,0.04331X0.07480*%
%ADD12R,0.02756X0.03543*%
%ADD13R,0.03543X0.02756*%
%ADD14C,0.01155*%
%ADD15R,0.04200X0.04200*%
%ADD16R,0.04000X0.10000*%
%ADD17R,0.02200X0.05000*%
%ADD18R,0.05000X0.02200*%
%ADD19R,0.06299X0.07087*%
D10*
X0013000Y0001400D02*
X0013000Y0131400D01*
X0073000Y0131400D01*
X0073000Y0001400D01*
X0013000Y0001400D01*
D11*
X0056472Y0062617D03*
X0065528Y0062617D03*
X0065528Y0077183D03*
X0056472Y0077183D03*
D12*
X0050559Y0086400D03*
X0050559Y0091400D03*
X0045441Y0091400D03*
X0045559Y0096400D03*
X0040441Y0096400D03*
X0035559Y0086400D03*
X0030441Y0086400D03*
X0030559Y0091400D03*
X0030559Y0096400D03*
X0025441Y0096400D03*
X0025441Y0091400D03*
X0024059Y0076400D03*
X0018941Y0076400D03*
X0019941Y0063900D03*
X0025059Y0063900D03*
X0045441Y0086400D03*
D13*
X0049500Y0079459D03*
X0049500Y0074341D03*
X0058000Y0088841D03*
X0058000Y0093959D03*
X0063000Y0093959D03*
X0063000Y0088841D03*
X0018000Y0088841D03*
X0018000Y0093959D03*
D14*
X0028644Y0075285D02*
X0030190Y0075285D01*
X0030190Y0075285D01*
X0028644Y0075285D01*
X0028644Y0075285D01*
X0028644Y0073344D02*
X0030190Y0073344D01*
X0028644Y0073344D02*
X0028644Y0073344D01*
X0030190Y0073344D01*
X0030190Y0073344D01*
X0030190Y0071402D02*
X0028644Y0071402D01*
X0030190Y0071402D02*
X0030190Y0071402D01*
X0028644Y0071402D01*
X0028644Y0071402D01*
X0028644Y0069461D02*
X0030190Y0069461D01*
X0030190Y0069461D01*
X0028644Y0069461D01*
X0028644Y0069461D01*
X0028644Y0067519D02*
X0030190Y0067519D01*
X0030190Y0067519D01*
X0028644Y0067519D01*
X0028644Y0067519D01*
X0033114Y0064595D02*
X0033114Y0063049D01*
X0033114Y0063049D01*
X0033114Y0064595D01*
X0033114Y0064595D01*
X0033114Y0064203D02*
X0033114Y0064203D01*
X0035056Y0064595D02*
X0035056Y0063049D01*
X0035056Y0063049D01*
X0035056Y0064595D01*
X0035056Y0064595D01*
X0035056Y0064203D02*
X0035056Y0064203D01*
X0036997Y0064595D02*
X0036997Y0063049D01*
X0036997Y0063049D01*
X0036997Y0064595D01*
X0036997Y0064595D01*
X0036997Y0064203D02*
X0036997Y0064203D01*
X0038939Y0064595D02*
X0038939Y0063049D01*
X0038939Y0063049D01*
X0038939Y0064595D01*
X0038939Y0064595D01*
X0038939Y0064203D02*
X0038939Y0064203D01*
X0040880Y0064595D02*
X0040880Y0063049D01*
X0040880Y0064595D02*
X0040880Y0064595D01*
X0040880Y0063049D01*
X0040880Y0063049D01*
X0040880Y0064203D02*
X0040880Y0064203D01*
X0043805Y0067519D02*
X0045351Y0067519D01*
X0043805Y0067519D02*
X0043805Y0067519D01*
X0045351Y0067519D01*
X0045351Y0067519D01*
X0045351Y0069461D02*
X0043805Y0069461D01*
X0043805Y0069461D01*
X0045351Y0069461D01*
X0045351Y0069461D01*
X0045351Y0071402D02*
X0043805Y0071402D01*
X0043805Y0071402D01*
X0045351Y0071402D01*
X0045351Y0071402D01*
X0045351Y0073344D02*
X0043805Y0073344D01*
X0045351Y0073344D02*
X0045351Y0073344D01*
X0043805Y0073344D01*
X0043805Y0073344D01*
X0043805Y0075285D02*
X0045351Y0075285D01*
X0045351Y0075285D01*
X0043805Y0075285D01*
X0043805Y0075285D01*
X0040880Y0078210D02*
X0040880Y0079756D01*
X0040880Y0079756D01*
X0040880Y0078210D01*
X0040880Y0078210D01*
X0040880Y0079364D02*
X0040880Y0079364D01*
X0038939Y0079756D02*
X0038939Y0078210D01*
X0038939Y0079756D02*
X0038939Y0079756D01*
X0038939Y0078210D01*
X0038939Y0078210D01*
X0038939Y0079364D02*
X0038939Y0079364D01*
X0036997Y0079756D02*
X0036997Y0078210D01*
X0036997Y0078210D01*
X0036997Y0079756D01*
X0036997Y0079756D01*
X0036997Y0079364D02*
X0036997Y0079364D01*
X0035056Y0079756D02*
X0035056Y0078210D01*
X0035056Y0078210D01*
X0035056Y0079756D01*
X0035056Y0079756D01*
X0035056Y0079364D02*
X0035056Y0079364D01*
X0033114Y0079756D02*
X0033114Y0078210D01*
X0033114Y0078210D01*
X0033114Y0079756D01*
X0033114Y0079756D01*
X0033114Y0079364D02*
X0033114Y0079364D01*
D15*
X0036997Y0071402D03*
D16*
X0046000Y0106400D03*
X0020000Y0106400D03*
D17*
X0036476Y0045800D03*
X0039626Y0045800D03*
X0042776Y0045800D03*
X0045925Y0045800D03*
X0049075Y0045800D03*
X0052224Y0045800D03*
X0055374Y0045800D03*
X0058524Y0045800D03*
X0058524Y0012000D03*
X0055374Y0012000D03*
X0052224Y0012000D03*
X0049075Y0012000D03*
X0045925Y0012000D03*
X0042776Y0012000D03*
X0039626Y0012000D03*
X0036476Y0012000D03*
D18*
X0030600Y0017876D03*
X0030600Y0021026D03*
X0030600Y0024176D03*
X0030600Y0027325D03*
X0030600Y0030475D03*
X0030600Y0033624D03*
X0030600Y0036774D03*
X0030600Y0039924D03*
X0064400Y0039924D03*
X0064400Y0036774D03*
X0064400Y0033624D03*
X0064400Y0030475D03*
X0064400Y0027325D03*
X0064400Y0024176D03*
X0064400Y0021026D03*
X0064400Y0017876D03*
D19*
X0068012Y0123400D03*
X0056988Y0123400D03*
M02*
