G75*
%MOIN*%
%OFA0B0*%
%FSLAX25Y25*%
%IPPOS*%
%LPD*%
%AMOC8*
5,1,8,0,0,1.08239X$1,22.5*
%
%ADD10C,0.00800*%
%ADD11C,0.00100*%
%ADD12C,0.01600*%
%ADD13R,0.02800X0.01600*%
%ADD14R,0.01600X0.02800*%
D10*
X0013000Y0001400D02*
X0013000Y0131400D01*
X0073000Y0131400D01*
X0073000Y0001400D01*
X0013000Y0001400D01*
X0033701Y0015101D02*
X0033701Y0042699D01*
X0059902Y0042699D01*
X0061299Y0041302D01*
X0061299Y0015101D01*
X0033701Y0015101D01*
X0059819Y0060057D02*
X0062181Y0060057D01*
X0067299Y0067538D02*
X0067299Y0072262D01*
X0062181Y0079743D02*
X0059819Y0079743D01*
X0054701Y0072262D02*
X0054701Y0067538D01*
X0061400Y0043300D02*
X0061402Y0043349D01*
X0061408Y0043397D01*
X0061418Y0043445D01*
X0061432Y0043492D01*
X0061449Y0043538D01*
X0061470Y0043582D01*
X0061495Y0043624D01*
X0061523Y0043664D01*
X0061555Y0043702D01*
X0061589Y0043737D01*
X0061626Y0043769D01*
X0061665Y0043798D01*
X0061707Y0043824D01*
X0061751Y0043846D01*
X0061796Y0043864D01*
X0061843Y0043879D01*
X0061890Y0043890D01*
X0061939Y0043897D01*
X0061988Y0043900D01*
X0062037Y0043899D01*
X0062085Y0043894D01*
X0062134Y0043885D01*
X0062181Y0043872D01*
X0062227Y0043855D01*
X0062271Y0043835D01*
X0062314Y0043811D01*
X0062355Y0043784D01*
X0062393Y0043753D01*
X0062429Y0043720D01*
X0062461Y0043684D01*
X0062491Y0043645D01*
X0062518Y0043604D01*
X0062541Y0043560D01*
X0062560Y0043515D01*
X0062576Y0043469D01*
X0062588Y0043422D01*
X0062596Y0043373D01*
X0062600Y0043324D01*
X0062600Y0043276D01*
X0062596Y0043227D01*
X0062588Y0043178D01*
X0062576Y0043131D01*
X0062560Y0043085D01*
X0062541Y0043040D01*
X0062518Y0042996D01*
X0062491Y0042955D01*
X0062461Y0042916D01*
X0062429Y0042880D01*
X0062393Y0042847D01*
X0062355Y0042816D01*
X0062314Y0042789D01*
X0062271Y0042765D01*
X0062227Y0042745D01*
X0062181Y0042728D01*
X0062134Y0042715D01*
X0062085Y0042706D01*
X0062037Y0042701D01*
X0061988Y0042700D01*
X0061939Y0042703D01*
X0061890Y0042710D01*
X0061843Y0042721D01*
X0061796Y0042736D01*
X0061751Y0042754D01*
X0061707Y0042776D01*
X0061665Y0042802D01*
X0061626Y0042831D01*
X0061589Y0042863D01*
X0061555Y0042898D01*
X0061523Y0042936D01*
X0061495Y0042976D01*
X0061470Y0043018D01*
X0061449Y0043062D01*
X0061432Y0043108D01*
X0061418Y0043155D01*
X0061408Y0043203D01*
X0061402Y0043251D01*
X0061400Y0043300D01*
X0031092Y0063528D02*
X0029123Y0065497D01*
X0023500Y0101900D02*
X0042500Y0101900D01*
X0040000Y0104900D02*
X0041500Y0106400D01*
X0040000Y0107900D01*
X0041500Y0106400D02*
X0038000Y0106400D01*
X0042500Y0110900D02*
X0023500Y0110900D01*
D11*
X0024550Y0111950D02*
X0024550Y0112701D01*
X0025051Y0113201D01*
X0025051Y0113451D01*
X0025523Y0112951D02*
X0026024Y0113451D01*
X0026024Y0111950D01*
X0026524Y0111950D02*
X0025523Y0111950D01*
X0024550Y0112701D02*
X0024050Y0113201D01*
X0024050Y0113451D01*
X0026654Y0102001D02*
X0026403Y0101751D01*
X0026403Y0100750D01*
X0026654Y0100500D01*
X0027154Y0100500D01*
X0027404Y0100750D01*
X0027877Y0100750D02*
X0027877Y0100500D01*
X0027877Y0100750D02*
X0028878Y0101751D01*
X0028878Y0102001D01*
X0027877Y0102001D01*
X0027404Y0101751D02*
X0027154Y0102001D01*
X0026654Y0102001D01*
X0026050Y0097401D02*
X0026050Y0095900D01*
X0027051Y0095900D01*
X0027523Y0095900D02*
X0028524Y0095900D01*
X0028024Y0095900D02*
X0028024Y0097401D01*
X0027523Y0096901D01*
X0027327Y0086601D02*
X0027827Y0086601D01*
X0028078Y0086351D01*
X0028078Y0086101D01*
X0027827Y0085851D01*
X0028078Y0085600D01*
X0028078Y0085350D01*
X0027827Y0085100D01*
X0027327Y0085100D01*
X0027077Y0085350D01*
X0026604Y0085100D02*
X0025603Y0085100D01*
X0025603Y0086601D01*
X0027077Y0086351D02*
X0027327Y0086601D01*
X0027577Y0085851D02*
X0027827Y0085851D01*
X0031101Y0074849D02*
X0031101Y0073597D01*
X0031351Y0073347D01*
X0031852Y0073347D01*
X0032102Y0073597D01*
X0032102Y0074849D01*
X0032574Y0074348D02*
X0033075Y0074849D01*
X0033075Y0073347D01*
X0033575Y0073347D02*
X0032574Y0073347D01*
X0020827Y0061301D02*
X0021078Y0061051D01*
X0021078Y0060801D01*
X0020827Y0060551D01*
X0021078Y0060300D01*
X0021078Y0060050D01*
X0020827Y0059800D01*
X0020327Y0059800D01*
X0020077Y0060050D01*
X0019604Y0060050D02*
X0019354Y0059800D01*
X0018854Y0059800D01*
X0018603Y0060050D01*
X0018603Y0061051D01*
X0018854Y0061301D01*
X0019354Y0061301D01*
X0019604Y0061051D01*
X0020077Y0061051D02*
X0020327Y0061301D01*
X0020827Y0061301D01*
X0020827Y0060551D02*
X0020577Y0060551D01*
X0020278Y0072600D02*
X0019277Y0072600D01*
X0020278Y0073601D01*
X0020278Y0073851D01*
X0020027Y0074101D01*
X0019527Y0074101D01*
X0019277Y0073851D01*
X0018804Y0073851D02*
X0018804Y0073351D01*
X0018554Y0073100D01*
X0017803Y0073100D01*
X0017803Y0072600D02*
X0017803Y0074101D01*
X0018554Y0074101D01*
X0018804Y0073851D01*
X0018304Y0073100D02*
X0018804Y0072600D01*
X0015450Y0088350D02*
X0014449Y0088350D01*
X0014199Y0088600D01*
X0014199Y0089101D01*
X0014449Y0089351D01*
X0014949Y0089823D02*
X0014949Y0090574D01*
X0015200Y0090824D01*
X0015450Y0090824D01*
X0015700Y0090574D01*
X0015700Y0090073D01*
X0015450Y0089823D01*
X0014949Y0089823D01*
X0014449Y0090324D01*
X0014199Y0090824D01*
X0015450Y0089351D02*
X0015700Y0089101D01*
X0015700Y0088600D01*
X0015450Y0088350D01*
X0039603Y0101100D02*
X0040604Y0101100D01*
X0041077Y0101100D02*
X0042078Y0102101D01*
X0042078Y0102351D01*
X0041827Y0102601D01*
X0041327Y0102601D01*
X0041077Y0102351D01*
X0041077Y0101100D02*
X0042078Y0101100D01*
X0039603Y0101100D02*
X0039603Y0102601D01*
X0044800Y0095001D02*
X0044550Y0094751D01*
X0044550Y0093750D01*
X0044800Y0093500D01*
X0045301Y0093500D01*
X0045551Y0093750D01*
X0046023Y0093750D02*
X0046273Y0093500D01*
X0046774Y0093500D01*
X0047024Y0093750D01*
X0047024Y0094251D01*
X0046774Y0094501D01*
X0046524Y0094501D01*
X0046023Y0094251D01*
X0046023Y0095001D01*
X0047024Y0095001D01*
X0045551Y0094751D02*
X0045301Y0095001D01*
X0044800Y0095001D01*
X0044801Y0084301D02*
X0044300Y0084301D01*
X0044050Y0084051D01*
X0044050Y0083050D01*
X0044300Y0082800D01*
X0044801Y0082800D01*
X0045051Y0083050D01*
X0045523Y0083551D02*
X0046524Y0083551D01*
X0046274Y0084301D02*
X0045523Y0083551D01*
X0045051Y0084051D02*
X0044801Y0084301D01*
X0046274Y0084301D02*
X0046274Y0082800D01*
X0047603Y0082601D02*
X0047603Y0081100D01*
X0047603Y0081600D02*
X0048354Y0081600D01*
X0048604Y0081851D01*
X0048604Y0082351D01*
X0048354Y0082601D01*
X0047603Y0082601D01*
X0048104Y0081600D02*
X0048604Y0081100D01*
X0049077Y0081100D02*
X0050078Y0081100D01*
X0049577Y0081100D02*
X0049577Y0082601D01*
X0049077Y0082101D01*
X0054199Y0087200D02*
X0054449Y0086950D01*
X0055450Y0086950D01*
X0055700Y0087200D01*
X0055700Y0087701D01*
X0055450Y0087951D01*
X0055700Y0088423D02*
X0054699Y0089424D01*
X0054449Y0089424D01*
X0054199Y0089174D01*
X0054199Y0088673D01*
X0054449Y0088423D01*
X0054449Y0087951D02*
X0054199Y0087701D01*
X0054199Y0087200D01*
X0055700Y0088423D02*
X0055700Y0089424D01*
X0058949Y0092950D02*
X0059950Y0092950D01*
X0060200Y0093200D01*
X0060200Y0093701D01*
X0059950Y0093951D01*
X0060200Y0094423D02*
X0060200Y0095424D01*
X0060200Y0094924D02*
X0058699Y0094924D01*
X0059199Y0094423D01*
X0058949Y0093951D02*
X0058699Y0093701D01*
X0058699Y0093200D01*
X0058949Y0092950D01*
X0069450Y0072424D02*
X0069450Y0071423D01*
X0069450Y0070951D02*
X0068950Y0070450D01*
X0069450Y0070200D02*
X0069200Y0069950D01*
X0068199Y0069950D01*
X0067949Y0070200D01*
X0067949Y0070701D01*
X0068199Y0070951D01*
X0069200Y0070951D01*
X0069450Y0070701D01*
X0069450Y0070200D01*
X0069450Y0071924D02*
X0067949Y0071924D01*
X0068449Y0071423D01*
X0069050Y0040978D02*
X0069050Y0039977D01*
X0069050Y0040477D02*
X0067549Y0040477D01*
X0068049Y0039977D01*
X0067799Y0039504D02*
X0067549Y0039254D01*
X0067549Y0038754D01*
X0067799Y0038503D01*
X0068800Y0038503D01*
X0069050Y0038754D01*
X0069050Y0039254D01*
X0068800Y0039504D01*
X0069050Y0038022D02*
X0069050Y0037521D01*
X0069050Y0037772D02*
X0067549Y0037772D01*
X0067549Y0038022D02*
X0067549Y0037521D01*
X0059774Y0127950D02*
X0059273Y0127950D01*
X0059023Y0128200D01*
X0059023Y0128450D01*
X0059273Y0128701D01*
X0059774Y0128701D01*
X0060024Y0128450D01*
X0060024Y0128200D01*
X0059774Y0127950D01*
X0059774Y0128701D02*
X0060024Y0128951D01*
X0060024Y0129201D01*
X0059774Y0129451D01*
X0059273Y0129451D01*
X0059023Y0129201D01*
X0059023Y0128951D01*
X0059273Y0128701D01*
X0058551Y0129201D02*
X0058301Y0129451D01*
X0057800Y0129451D01*
X0057550Y0129201D01*
X0057550Y0128200D01*
X0057800Y0127950D01*
X0058301Y0127950D01*
X0058551Y0128200D01*
D12*
X0058120Y0091400D02*
X0057880Y0091400D01*
X0062880Y0091400D02*
X0063120Y0091400D01*
X0048000Y0091520D02*
X0048000Y0091280D01*
X0048000Y0086520D02*
X0048000Y0086280D01*
X0028000Y0096280D02*
X0028000Y0096520D01*
X0018120Y0091400D02*
X0017880Y0091400D01*
X0022500Y0064020D02*
X0022500Y0063780D01*
D13*
X0049500Y0076900D03*
D14*
X0021500Y0076400D03*
M02*
